<svg xmlns="http://www.w3.org/2000/svg" xmlns:xlink="http://www.w3.org/1999/xlink" width="72" zoomAndPan="magnify" viewBox="0 0 54 54" height="72" preserveAspectRatio="xMidYMid meet" version="1.0"><defs><clipPath id="4f08ed570f"><path d="M 15 16 L 26.980469 16 L 26.980469 20 L 15 20 Z M 15 16 " clip-rule="nonzero"/></clipPath><clipPath id="481e01594b"><path d="M 13.039062 6.300781 L 21 6.300781 L 21 14 L 13.039062 14 Z M 13.039062 6.300781 " clip-rule="nonzero"/></clipPath><clipPath id="6bfbbb7a35"><path d="M 14 21 L 22 21 L 22 26.507812 L 14 26.507812 Z M 14 21 " clip-rule="nonzero"/></clipPath><clipPath id="b295b43dd6"><path d="M 13 37 L 40 37 L 40 52.355469 L 13 52.355469 Z M 13 37 " clip-rule="nonzero"/></clipPath><clipPath id="14ad9cf1ef"><path d="M 0.820312 0.625 L 52 0.625 L 52 40 L 0.820312 40 Z M 0.820312 0.625 " clip-rule="nonzero"/></clipPath></defs><g clip-path="url(#4f08ed570f)"><path fill="#7ad7f4" d="M 23.1875 19.898438 C 21.136719 19.835938 19.117188 19.511719 17.128906 19.035156 C 16.695312 18.933594 16.269531 18.800781 15.863281 18.613281 C 15.554688 18.464844 15.539062 18.285156 15.820312 18.082031 C 16.097656 17.882812 16.414062 17.753906 16.738281 17.65625 C 19.003906 16.972656 21.308594 16.664062 23.671875 16.964844 C 24.394531 17.054688 25.09375 17.222656 25.761719 17.523438 C 26.039062 17.648438 26.304688 17.792969 26.523438 18.007812 C 26.984375 18.453125 26.9375 18.992188 26.398438 19.347656 C 25.996094 19.609375 25.535156 19.710938 25.070312 19.785156 C 24.449219 19.886719 23.820312 19.910156 23.1875 19.898438 Z M 16.042969 18.382812 C 16.480469 18.464844 16.894531 18.53125 17.300781 18.617188 C 19.25 19.039062 21.21875 19.328125 23.210938 19.386719 C 24.042969 19.410156 24.867188 19.355469 25.671875 19.113281 C 25.859375 19.058594 26.042969 18.980469 26.195312 18.847656 C 26.339844 18.71875 26.351562 18.59375 26.238281 18.441406 C 26.117188 18.277344 25.957031 18.164062 25.78125 18.066406 C 25.386719 17.847656 24.964844 17.71875 24.527344 17.628906 C 23.289062 17.371094 22.035156 17.363281 20.78125 17.433594 C 19.253906 17.523438 17.746094 17.730469 16.292969 18.242188 C 16.210938 18.269531 16.121094 18.289062 16.042969 18.382812 Z M 16.042969 18.382812 " fill-opacity="1" fill-rule="nonzero"/></g><g clip-path="url(#481e01594b)"><path fill="#7ad7f4" d="M 19.617188 6.324219 C 19.6875 6.328125 19.761719 6.328125 19.835938 6.335938 C 20.664062 6.40625 21.105469 7.019531 20.914062 7.828125 C 20.804688 8.28125 20.570312 8.671875 20.296875 9.042969 C 19.691406 9.847656 18.9375 10.492188 18.132812 11.082031 C 17.8125 11.3125 17.484375 11.539062 17.15625 11.753906 C 16.226562 12.363281 15.296875 12.972656 14.339844 13.535156 C 14.128906 13.660156 13.925781 13.785156 13.683594 13.832031 C 13.363281 13.894531 13.164062 13.769531 13.089844 13.449219 C 13.046875 13.265625 13.066406 13.078125 13.089844 12.894531 C 13.207031 12.011719 13.570312 11.226562 14.0625 10.492188 C 14.929688 9.203125 15.96875 8.078125 17.25 7.191406 C 17.929688 6.722656 18.664062 6.375 19.507812 6.328125 C 19.542969 6.328125 19.578125 6.324219 19.617188 6.324219 Z M 19.429688 6.785156 C 18.96875 6.804688 18.457031 6.996094 17.976562 7.273438 C 16.550781 8.101562 15.40625 9.230469 14.46875 10.574219 C 14.007812 11.230469 13.621094 11.925781 13.457031 12.722656 C 13.421875 12.914062 13.394531 13.101562 13.417969 13.296875 C 13.429688 13.425781 13.476562 13.480469 13.605469 13.390625 C 13.773438 13.273438 13.941406 13.152344 14.117188 13.054688 C 14.941406 12.609375 15.71875 12.097656 16.507812 11.601562 C 17.632812 10.894531 18.691406 10.105469 19.582031 9.113281 C 19.894531 8.769531 20.175781 8.398438 20.347656 7.960938 C 20.640625 7.210938 20.339844 6.777344 19.429688 6.785156 Z M 19.429688 6.785156 " fill-opacity="1" fill-rule="nonzero"/></g><g clip-path="url(#6bfbbb7a35)"><path fill="#7ad7f4" d="M 15.171875 21.316406 C 15.757812 21.34375 16.300781 21.535156 16.8125 21.800781 C 18.082031 22.460938 19.300781 23.199219 20.34375 24.195312 C 20.714844 24.554688 21.039062 24.949219 21.300781 25.398438 C 21.378906 25.53125 21.445312 25.671875 21.480469 25.824219 C 21.5625 26.203125 21.339844 26.488281 20.953125 26.496094 C 20.777344 26.503906 20.609375 26.457031 20.445312 26.398438 C 19.917969 26.222656 19.445312 25.945312 18.996094 25.625 C 17.59375 24.628906 16.261719 23.542969 15.1875 22.183594 C 15.09375 22.066406 15.007812 21.949219 14.914062 21.832031 C 14.824219 21.714844 14.738281 21.597656 14.816406 21.445312 C 14.890625 21.292969 15.035156 21.308594 15.171875 21.316406 Z M 15.390625 21.746094 C 15.695312 22.136719 16.019531 22.449219 16.332031 22.769531 C 17.367188 23.847656 18.566406 24.71875 19.824219 25.511719 C 20.109375 25.6875 20.414062 25.828125 20.742188 25.90625 C 20.804688 25.917969 20.886719 25.960938 20.933594 25.90625 C 20.992188 25.839844 20.933594 25.761719 20.90625 25.699219 C 20.761719 25.363281 20.519531 25.097656 20.261719 24.847656 C 19 23.605469 17.546875 22.648438 15.929688 21.9375 C 15.769531 21.867188 15.617188 21.765625 15.390625 21.746094 Z M 15.390625 21.746094 " fill-opacity="1" fill-rule="nonzero"/></g><path fill="#0b9fb7" d="M 18.511719 13.300781 C 18.777344 13.304688 19.082031 13.335938 19.371094 13.464844 C 19.902344 13.703125 19.96875 14.191406 19.511719 14.554688 C 19.140625 14.847656 18.695312 14.996094 18.253906 15.125 C 17.296875 15.398438 16.320312 15.585938 15.335938 15.730469 C 15.015625 15.777344 14.921875 15.710938 14.808594 15.453125 C 14.765625 15.34375 14.773438 15.246094 14.820312 15.148438 C 14.878906 15.027344 14.964844 14.921875 15.058594 14.820312 C 15.8125 13.996094 17.34375 13.316406 18.511719 13.300781 Z M 15.242188 15.398438 C 15.421875 15.359375 15.601562 15.308594 15.785156 15.28125 C 16.597656 15.160156 17.390625 14.949219 18.179688 14.71875 C 18.527344 14.613281 18.871094 14.488281 19.171875 14.273438 C 19.265625 14.207031 19.386719 14.136719 19.363281 14 C 19.339844 13.871094 19.210938 13.828125 19.101562 13.785156 C 18.839844 13.683594 18.558594 13.671875 18.28125 13.710938 C 17.148438 13.859375 16.164062 14.347656 15.296875 15.082031 C 15.230469 15.140625 15.1875 15.214844 15.164062 15.300781 C 15.144531 15.371094 15.160156 15.410156 15.242188 15.398438 Z M 15.242188 15.398438 " fill-opacity="1" fill-rule="nonzero"/><path fill="#0b9fb7" d="M 15.960938 19.390625 C 16.824219 19.4375 17.617188 19.660156 18.324219 20.15625 C 18.484375 20.269531 18.632812 20.40625 18.742188 20.570312 C 18.832031 20.699219 18.878906 20.839844 18.796875 20.988281 C 18.722656 21.128906 18.589844 21.171875 18.4375 21.175781 C 18.199219 21.183594 17.972656 21.117188 17.757812 21.027344 C 17.019531 20.722656 16.320312 20.34375 15.628906 19.945312 C 15.574219 19.914062 15.527344 19.871094 15.484375 19.824219 C 15.414062 19.746094 15.394531 19.652344 15.429688 19.550781 C 15.46875 19.441406 15.554688 19.398438 15.660156 19.394531 C 15.765625 19.386719 15.871094 19.390625 15.960938 19.390625 Z M 15.992188 19.707031 C 16.398438 20.046875 18.128906 20.792969 18.425781 20.765625 C 18.285156 20.324219 16.742188 19.644531 15.992188 19.707031 Z M 15.992188 19.707031 " fill-opacity="1" fill-rule="nonzero"/><path fill="#000000" d="M 44.914062 28.976562 C 45.152344 29.183594 45.492188 29.234375 45.777344 29.105469 L 45.789062 29.101562 C 46.417969 28.8125 46.417969 27.914062 45.785156 27.628906 C 40.300781 25.160156 37.109375 29.367188 37.109375 29.367188 C 41.097656 26.324219 43.945312 28.140625 44.914062 28.976562 " fill-opacity="1" fill-rule="nonzero"/><path fill="#000000" d="M 25.28125 33.65625 L 28.742188 37.503906 C 28.824219 37.59375 28.957031 37.617188 29.0625 37.558594 C 29.214844 37.480469 29.25 37.277344 29.136719 37.148438 L 22.394531 29.644531 L 21.867188 30.777344 L 23.691406 32.808594 C 23.144531 32.5625 22.554688 32.347656 21.933594 32.171875 L 21.460938 31.644531 L 21.101562 32.414062 C 22.625 32.757812 23.957031 33.320312 24.996094 34.050781 C 25.085938 33.917969 25.183594 33.785156 25.28125 33.65625 " fill-opacity="1" fill-rule="nonzero"/><path fill="#000000" d="M 51.558594 19.402344 C 51.539062 19.472656 51.503906 19.546875 51.453125 19.613281 C 51.3125 19.800781 51.085938 19.898438 50.855469 19.875 L 47.886719 19.574219 C 47.242188 19.511719 46.503906 19.484375 45.890625 19.695312 C 44.289062 20.25 41.585938 21.453125 39.597656 25.640625 C 39.707031 25.621094 39.820312 25.609375 39.929688 25.59375 C 40.933594 24.207031 43.808594 21.035156 48.226562 22.613281 C 48.519531 22.71875 48.589844 23.105469 48.351562 23.304688 C 48.242188 23.398438 48.09375 23.425781 47.960938 23.382812 L 46.234375 22.808594 C 45.863281 22.683594 45.464844 22.648438 45.074219 22.707031 C 44.113281 22.851562 42.335938 23.417969 40.589844 25.535156 C 40.824219 25.523438 41.0625 25.515625 41.300781 25.515625 C 45.632812 25.515625 47.734375 28.09375 50.492188 27.023438 C 53.171875 25.988281 49.199219 35.53125 41.300781 35.914062 C 41.089844 35.925781 40.882812 35.925781 40.675781 35.925781 L 46.628906 42.972656 C 50.328125 38.496094 52.546875 32.761719 52.546875 26.503906 C 52.546875 24.039062 52.203125 21.65625 51.558594 19.402344 " fill-opacity="1" fill-rule="nonzero"/><path fill="#000000" d="M 32.503906 27.625 L 30.945312 34.164062 C 30.917969 34.277344 30.96875 34.394531 31.070312 34.453125 C 31.222656 34.539062 31.417969 34.457031 31.457031 34.285156 L 32.527344 29.796875 C 32.890625 29.789062 33.238281 29.816406 33.5625 29.875 C 33.59375 29.746094 33.632812 29.621094 33.675781 29.5 L 38.960938 35.753906 L 39.457031 35.847656 L 32.503906 27.625 " fill-opacity="1" fill-rule="nonzero"/><path fill="#000000" d="M 38.960938 35.753906 C 37.636719 35.507812 36.457031 34.992188 35.539062 34.3125 C 35.21875 34.996094 34.730469 35.691406 34.109375 36.34375 L 40.207031 48.554688 C 42.390625 47.210938 44.359375 45.554688 46.046875 43.648438 L 39.457031 35.847656 L 38.960938 35.753906 " fill-opacity="1" fill-rule="nonzero"/><g clip-path="url(#b295b43dd6)"><path fill="#000000" d="M 33.085938 37.277344 C 32.777344 37.523438 32.449219 37.757812 32.097656 37.980469 C 30.402344 39.050781 28.597656 39.5625 27.121094 39.503906 C 26.09375 42.527344 21.9375 45.171875 16.695312 45.839844 C 16.046875 45.921875 15.40625 45.96875 14.777344 45.988281 L 13.488281 48.753906 C 17.351562 51.050781 21.863281 52.371094 26.683594 52.371094 C 31.324219 52.371094 35.679688 51.144531 39.449219 49.003906 L 33.453125 37.003906 L 33.085938 37.277344 " fill-opacity="1" fill-rule="nonzero"/></g><path fill="#000000" d="M 32.972656 36.042969 L 30.15625 36.242188 C 29.910156 36.261719 29.789062 36.558594 29.957031 36.742188 C 30.019531 36.808594 30.109375 36.847656 30.199219 36.839844 L 32.773438 36.65625 L 33.085938 37.277344 L 33.453125 37.003906 L 32.972656 36.042969 " fill-opacity="1" fill-rule="nonzero"/><path fill="#000000" d="M 19.191406 32.898438 C 15.253906 32.859375 7.667969 33.691406 5.21875 40.355469 C 5.21875 40.355469 10.304688 34.394531 19.03125 33.238281 L 13.105469 45.957031 C 11.4375 45.851562 9.902344 45.515625 8.597656 44.992188 C 9.855469 46.226562 11.242188 47.332031 12.734375 48.289062 L 20.203125 32.257812 L 19.542969 32.144531 L 19.191406 32.898438 " fill-opacity="1" fill-rule="nonzero"/><path fill="#000000" d="M 20.792969 33.078125 C 21.066406 33.0625 21.339844 33.050781 21.617188 33.046875 C 21.617188 33.046875 21.335938 33.007812 20.84375 32.96875 L 20.792969 33.078125 " fill-opacity="1" fill-rule="nonzero"/><g clip-path="url(#14ad9cf1ef)"><path fill="#000000" d="M 36.304688 26.210938 L 30.148438 23.71875 L 29.421875 30.039062 C 29.105469 30.167969 28.792969 30.316406 28.484375 30.476562 L 29.339844 23.039062 C 29.355469 22.902344 29.433594 22.78125 29.550781 22.710938 C 29.667969 22.640625 29.8125 22.628906 29.941406 22.683594 L 37.441406 25.722656 C 37.042969 25.863281 36.664062 26.027344 36.304688 26.210938 Z M 20.351562 30.410156 L 18.367188 28.203125 L 15.027344 31.71875 C 14.984375 31.722656 14.941406 31.726562 14.902344 31.734375 C 14.460938 31.789062 14.023438 31.859375 13.597656 31.941406 L 18.058594 27.253906 C 18.144531 27.164062 18.261719 27.113281 18.382812 27.117188 C 18.507812 27.117188 18.621094 27.171875 18.707031 27.261719 L 20.753906 29.542969 Z M 26.683594 0.636719 C 12.398438 0.636719 0.816406 12.21875 0.816406 26.503906 C 0.816406 31.238281 2.089844 35.671875 4.308594 39.492188 C 4.675781 36.070312 9.152344 32.90625 14.957031 32.167969 C 16.558594 31.964844 18.109375 31.96875 19.542969 32.144531 L 20.203125 32.257812 L 21.875 28.667969 C 21.9375 28.535156 22.0625 28.441406 22.210938 28.421875 C 22.355469 28.398438 22.503906 28.449219 22.601562 28.5625 L 26.238281 32.605469 C 26.722656 32.148438 27.277344 31.714844 27.894531 31.324219 C 28.933594 30.667969 30.015625 30.21875 31.035156 29.988281 L 31.847656 26.570312 C 31.894531 26.378906 32.066406 26.234375 32.277344 26.230469 C 32.410156 26.230469 32.535156 26.296875 32.621094 26.398438 L 34.296875 28.378906 C 35.253906 27.113281 36.96875 26.148438 39.046875 25.734375 C 40.386719 22.925781 43.878906 17.671875 51.003906 18.550781 C 51.140625 18.566406 51.257812 18.621094 51.347656 18.699219 C 48.039062 8.230469 38.25 0.636719 26.683594 0.636719 " fill-opacity="1" fill-rule="nonzero"/></g></svg>